<?xml version="1.0" standalone="no"?><!DOCTYPE svg PUBLIC "-//W3C//DTD SVG 1.1//EN" "http://www.w3.org/Graphics/SVG/1.1/DTD/svg11.dtd"><svg t="1515261657182" class="icon" style="" viewBox="0 0 1024 1024" version="1.1" xmlns="http://www.w3.org/2000/svg" p-id="3264" xmlns:xlink="http://www.w3.org/1999/xlink" width="1024" height="1024"><defs><style type="text/css"></style></defs><path d="M830.98112 64.81408H193.024c-70.8096 0-128.20992 57.40032-128.20992 128.2048v637.96224c0 70.80448 57.40032 128.2048 128.20992 128.2048h637.95712c70.80448 0 128.2048-57.40032 128.2048-128.2048V193.01888c0-70.80448-57.40032-128.2048-128.2048-128.2048zM473.63584 696.13568a36.88448 36.88448 0 0 1-36.88448 36.88448H374.57408a36.88448 36.88448 0 0 1-36.88448-36.88448V327.86944a36.88448 36.88448 0 0 1 36.88448-36.88448h62.17728a36.88448 36.88448 0 0 1 36.88448 36.88448v368.26624z m212.67456 0a36.88448 36.88448 0 0 1-36.88448 36.88448h-62.17728a36.88448 36.88448 0 0 1-36.88448-36.88448V327.86944a36.88448 36.88448 0 0 1 36.88448-36.88448h62.17728a36.88448 36.88448 0 0 1 36.88448 36.88448v368.26624z" p-id="3265"></path></svg>