<?xml version="1.0" standalone="no"?><!DOCTYPE svg PUBLIC "-//W3C//DTD SVG 1.1//EN" "http://www.w3.org/Graphics/SVG/1.1/DTD/svg11.dtd"><svg t="1515263745326" class="icon" style="" viewBox="0 0 1024 1024" version="1.1" xmlns="http://www.w3.org/2000/svg" p-id="10644" xmlns:xlink="http://www.w3.org/1999/xlink" width="1024" height="1024"><defs><style type="text/css"></style></defs><path d="M455.872 789.664l-46.752 0c-134.912-22.048-238.208-139.552-238.208-280.704 0-47.296 12.128-91.52 32.64-130.784l34.88 48.352c25.408 35.168 80.16 25.376 91.808-16.448l66.112-237.76c9.184-33.024-15.648-65.728-49.92-65.664l-237.44 0.352c-42.176 0.064-66.56 47.84-41.888 82.08l64.192 88.96c-46.496 65.152-74.08 144.736-74.08 230.88 0 199.072 146.016 364.064 336.672 393.504 5.184 0.8 10.24 0.576 15.2-0.064l0 0.704 46.752 0c31.008 0 56.128-25.12 56.128-56.16l0-1.152c0-31.008-25.12-56.16-56.128-56.16zM956.864 820.704l-64.224-88.96c46.528-65.152 74.08-144.736 74.08-230.88 0-199.072-145.984-364.064-336.64-393.536-5.184-0.8-10.24-0.576-15.2 0.096l0-0.736-46.784 0c-30.976 0-56.096 25.152-56.096 56.16l0 1.152c0 31.04 25.12 56.192 56.096 56.192l46.784 0c134.912 22.048 238.176 139.552 238.176 280.704 0 47.296-12.128 91.52-32.608 130.784l-34.912-48.352c-25.376-35.168-80.16-25.376-91.776 16.416l-66.144 237.76c-9.184 33.056 15.68 65.728 49.952 65.664l237.44-0.32c42.176-0.064 66.56-47.872 41.888-82.08z" p-id="10645"></path></svg>